# xmcd CD database file
#
# Track frame offsets:
#	150
#	17376
#	31178
#	46512
#	57675
#	73606
#	82301
#	95541
#	110145
#	121668
#
# Disc length: 1822 seconds
#
# Revision: 0
# Processed by: cddbd v1.5.2PL0 Copyright (c) Steve Scherf et al.
# Submitted via: CDex 2.02
#
DISCID=7e071c0a
DTITLE=Jontavious Willis - Spectacular Class
DYEAR=2019
DGENRE=Blues
TTITLE0=Low Down Ways
TTITLE1=The Blues Is Dead?
TTITLE2=Resting On My Mind
TTITLE3=Daddy's Dough
TTITLE4=Friend Zone Blues
TTITLE5=Jon's Boogie
TTITLE6=Country
TTITLE7=Liquor
TTITLE8=Long Winded Woman
TTITLE9=The World Is In A Tangle
EXTD=YEAR: 2019
EXTT0=
EXTT1=
EXTT2=
EXTT3=
EXTT4=
EXTT5=
EXTT6=
EXTT7=
EXTT8=
EXTT9=
PLAYORDER=
